# xmcd
#
# Track frame offsets: 
#        150
#        18524
#        35961
#        58068
#        81451
#        96806
#        112411
#        127996
#        151719
#        172152
#        201785
#
# Disc length: 2968 seconds
#
# Revision: 0
# Processed by: cddbd v1.5.2PL0 Copyright (c) Steve Scherf et al.
# Submitted via: ExactAudioCopyFreeDBPlugin 1.0
#
DISCID=9c0b960b
DTITLE=Too Slim and the Taildraggers - Blue Heart
DYEAR=2013
DGENRE=Blues
TTITLE0=Wash My Hands
TTITLE1=Minutes Seem Like Hours
TTITLE2=Blue Heart
TTITLE3=Make It Sound Happy
TTITLE4=Good To See You Smile Again
TTITLE5=When Whiskey Was My Friend
TTITLE6=If You Broke My Heart
TTITLE7=New Years Blues
TTITLE8=Shape of Blues To Come
TTITLE9=Preacher
TTITLE10=Angels Are Back
EXTD=
EXTT0=
EXTT1=
EXTT2=
EXTT3=
EXTT4=
EXTT5=
EXTT6=
EXTT7=
EXTT8=
EXTT9=
EXTT10=
PLAYORDER=
